<svg width="100" height="36" viewBox="0 0 100 36" fill="none" xmlns="http://www.w3.org/2000/svg">
<path d="M37.156 6.4H44.128C48.776 6.4 51.1 8.50933 51.1 12.728C51.1 14.912 50.512 16.536 49.336 17.6C48.16 18.664 46.452 19.196 44.212 19.196H40.74V26H37.156V6.4ZM43.792 16.2C45.024 16.2 45.9387 15.92 46.536 15.36C47.152 14.8 47.46 13.9413 47.46 12.784C47.46 11.6267 47.152 10.7773 46.536 10.236C45.92 9.676 44.9773 9.396 43.708 9.396H40.74V16.2H43.792Z" fill="#101010"/>
<path d="M56.751 26.28C55.5563 26.28 54.6603 25.944 54.063 25.272C53.4656 24.5813 53.167 23.6947 53.167 22.612V5H56.639V21.184C56.639 21.9307 56.6763 22.4627 56.751 22.78C56.8443 23.0787 56.9936 23.2653 57.199 23.34C57.423 23.396 57.7963 23.424 58.319 23.424L58.011 26.28H56.751Z" fill="#101010"/>
<path d="M72.5937 12V26H69.3457L69.2897 25.16C68.8604 25.4773 68.3657 25.748 67.8057 25.972C67.2457 26.1773 66.7044 26.28 66.1817 26.28C64.1097 26.28 62.5977 25.6827 61.6457 24.488C60.7124 23.2933 60.2457 21.6413 60.2457 19.532V12H63.7177V19.532C63.7177 20.8387 63.9324 21.8093 64.3617 22.444C64.8097 23.06 65.5191 23.368 66.4897 23.368C67.5724 23.368 68.4497 22.976 69.1217 22.192V12H72.5937Z" fill="#101010"/>
<path d="M80.3989 26.28C79.1669 26.28 78.2336 25.9253 77.5989 25.216C76.9643 24.488 76.6469 23.62 76.6469 22.612V14.856H74.6589L74.9669 12H76.6469V8.92L80.1189 8.556V12H83.1989V14.856H80.1189V21.184C80.1189 21.9307 80.1563 22.4533 80.2309 22.752C80.3243 23.032 80.5016 23.2187 80.7629 23.312C81.0429 23.3867 81.5376 23.424 82.2469 23.424H83.1989L82.8909 26.28H80.3989Z" fill="#101010"/>
<path d="M91.8159 26.28C90.3413 26.28 89.0626 25.9533 87.9799 25.3C86.8973 24.6467 86.0666 23.7693 85.4879 22.668C84.9093 21.5667 84.6199 20.3533 84.6199 19.028C84.6199 17.7027 84.9093 16.48 85.4879 15.36C86.0666 14.24 86.8973 13.3533 87.9799 12.7C89.0626 12.0467 90.3413 11.72 91.8159 11.72C93.2906 11.72 94.5693 12.0467 95.6519 12.7C96.7346 13.3533 97.5653 14.24 98.1439 15.36C98.7226 16.48 99.0119 17.7027 99.0119 19.028C99.0119 20.3533 98.7226 21.5667 98.1439 22.668C97.5653 23.7693 96.7346 24.6467 95.6519 25.3C94.5693 25.9533 93.2906 26.28 91.8159 26.28ZM91.8159 23.424C92.9546 23.424 93.8413 23.0227 94.4759 22.22C95.1293 21.4173 95.4559 20.3533 95.4559 19.028C95.4559 17.684 95.1293 16.6107 94.4759 15.808C93.8413 14.9867 92.9546 14.576 91.8159 14.576C90.6773 14.576 89.7813 14.9867 89.1279 15.808C88.4933 16.6107 88.1759 17.684 88.1759 19.028C88.1759 20.3533 88.4933 21.4173 89.1279 22.22C89.7813 23.0227 90.6773 23.424 91.8159 23.424Z" fill="#101010"/>
<path d="M2.29422 27.9808C9.46861 32.1229 18.6425 29.6648 22.7846 22.4904C26.9267 15.316 24.4686 6.14214 17.2942 2" stroke="url(#paint0_linear)" stroke-width="4" stroke-linecap="round" stroke-linejoin="round"/>
<path d="M2 10.4904C4.48528 6.18575 9.98959 4.71087 14.2942 7.19615" stroke="url(#paint1_linear)" stroke-width="4" stroke-linecap="round" stroke-linejoin="round"/>
<rect x="4.79422" y="9.99038" width="10" height="10" rx="5" fill="#E44242"/>
<defs>
<linearGradient id="paint0_linear" x1="23.7894" y1="5.75" x2="8.78941" y2="31.7308" gradientUnits="userSpaceOnUse">
<stop stop-color="#E44242"/>
<stop offset="1" stop-color="#FF7B51"/>
</linearGradient>
<linearGradient id="paint1_linear" x1="10.3971" y1="4.94615" x2="5.89711" y2="12.7404" gradientUnits="userSpaceOnUse">
<stop stop-color="#E44242"/>
<stop offset="1" stop-color="#FF7B51"/>
</linearGradient>
</defs>
</svg>
