<svg width="90" height="40" viewBox="0 0 90 40" fill="none" xmlns="http://www.w3.org/2000/svg">
<path d="M34.8483 12.2002H40.8243C44.8083 12.2002 46.8003 14.0082 46.8003 17.6242C46.8003 19.4962 46.2963 20.8882 45.2883 21.8002C44.2803 22.7122 42.8163 23.1682 40.8963 23.1682H37.9203V29.0002H34.8483V12.2002ZM40.5363 20.6002C41.5923 20.6002 42.3763 20.3602 42.8883 19.8802C43.4163 19.4002 43.6803 18.6642 43.6803 17.6722C43.6803 16.6802 43.4163 15.9522 42.8883 15.4882C42.3603 15.0082 41.5523 14.7682 40.4643 14.7682H37.9203V20.6002H40.5363Z" fill="#B7B7B7"/>
<path d="M51.644 29.2402C50.62 29.2402 49.852 28.9522 49.34 28.3762C48.828 27.7842 48.572 27.0242 48.572 26.0962V11.0002H51.548V24.8722C51.548 25.5122 51.58 25.9682 51.644 26.2402C51.724 26.4962 51.852 26.6562 52.028 26.7202C52.22 26.7682 52.54 26.7922 52.988 26.7922L52.724 29.2402H51.644Z" fill="#B7B7B7"/>
<path d="M65.2235 17.0002V29.0002H62.4395L62.3915 28.2802C62.0235 28.5522 61.5995 28.7842 61.1195 28.9762C60.6395 29.1522 60.1755 29.2402 59.7275 29.2402C57.9515 29.2402 56.6555 28.7282 55.8395 27.7042C55.0395 26.6802 54.6395 25.2642 54.6395 23.4562V17.0002H57.6155V23.4562C57.6155 24.5762 57.7995 25.4082 58.1675 25.9522C58.5515 26.4802 59.1595 26.7442 59.9915 26.7442C60.9195 26.7442 61.6715 26.4082 62.2475 25.7362V17.0002H65.2235Z" fill="#B7B7B7"/>
<path d="M71.9137 29.2402C70.8577 29.2402 70.0577 28.9362 69.5137 28.3282C68.9697 27.7042 68.6977 26.9602 68.6977 26.0962V19.4482H66.9937L67.2577 17.0002H68.6977V14.3602L71.6737 14.0482V17.0002H74.3137V19.4482H71.6737V24.8722C71.6737 25.5122 71.7057 25.9602 71.7697 26.2162C71.8497 26.4562 72.0017 26.6162 72.2257 26.6962C72.4657 26.7602 72.8897 26.7922 73.4977 26.7922H74.3137L74.0497 29.2402H71.9137Z" fill="#B7B7B7"/>
<path d="M81.6997 29.2402C80.4357 29.2402 79.3397 28.9602 78.4117 28.4002C77.4837 27.8402 76.7717 27.0882 76.2757 26.1442C75.7797 25.2002 75.5317 24.1602 75.5317 23.0242C75.5317 21.8882 75.7797 20.8402 76.2757 19.8802C76.7717 18.9202 77.4837 18.1602 78.4117 17.6002C79.3397 17.0402 80.4357 16.7602 81.6997 16.7602C82.9637 16.7602 84.0597 17.0402 84.9877 17.6002C85.9157 18.1602 86.6277 18.9202 87.1237 19.8802C87.6197 20.8402 87.8677 21.8882 87.8677 23.0242C87.8677 24.1602 87.6197 25.2002 87.1237 26.1442C86.6277 27.0882 85.9157 27.8402 84.9877 28.4002C84.0597 28.9602 82.9637 29.2402 81.6997 29.2402ZM81.6997 26.7922C82.6757 26.7922 83.4357 26.4482 83.9797 25.7602C84.5397 25.0722 84.8197 24.1602 84.8197 23.0242C84.8197 21.8722 84.5397 20.9522 83.9797 20.2642C83.4357 19.5602 82.6757 19.2082 81.6997 19.2082C80.7237 19.2082 79.9557 19.5602 79.3957 20.2642C78.8517 20.9522 78.5797 21.8722 78.5797 23.0242C78.5797 24.1602 78.8517 25.0722 79.3957 25.7602C79.9557 26.4482 80.7237 26.7922 81.6997 26.7922Z" fill="#B7B7B7"/>
<path d="M20.2945 4.26828C19.338 3.716 18.1148 4.04375 17.5625 5.00033C17.0102 5.95692 17.338 7.1801 18.2945 7.73239C24.5124 11.3222 26.6427 19.2729 23.0529 25.4907C19.463 31.7085 11.5123 33.8389 5.29453 30.249C4.33795 29.6968 3.11477 30.0245 2.56248 30.9811C2.0102 31.9377 2.33795 33.1609 3.29453 33.7131C11.4255 38.4076 21.8225 35.6217 26.517 27.4907C31.2114 19.3597 28.4255 8.9627 20.2945 4.26828Z" fill="#B7B7B7"/>
<path d="M5.73238 15.4907C7.66539 12.1427 11.9465 10.9956 15.2946 12.9285C16.2512 13.4808 17.4743 13.1531 18.0266 12.1965C18.5789 11.2399 18.2512 10.0167 17.2946 9.46444C12.0334 6.42688 5.30586 8.22951 2.26828 13.4907C1.716 14.4473 2.04375 15.6705 3.00033 16.2228C3.95692 16.7751 5.1801 16.4473 5.73238 15.4907Z" fill="#B7B7B7"/>
<path d="M11.7945 13.9906C9.0331 13.9906 6.79452 16.2291 6.79452 18.9906C6.79452 21.752 9.0331 23.9906 11.7945 23.9906C14.5559 23.9906 16.7945 21.752 16.7945 18.9906C16.7945 16.2291 14.5559 13.9906 11.7945 13.9906Z" fill="#B7B7B7"/>
</svg>
